<svg width="252" height="141" viewBox="0 0 252 141" fill="none" xmlns="http://www.w3.org/2000/svg">
<line x1="246" y1="20" x2="246" y2="110" stroke="white" stroke-width="2"/>
<circle cx="246" cy="6" r="5" stroke="white" stroke-width="2"/>
<circle cx="246" cy="114" r="5" stroke="white" stroke-width="2"/>
<line x1="6" y1="10" x2="6" y2="100" stroke="white" stroke-width="2"/>
<circle cx="6" cy="6" r="5" stroke="white" stroke-width="2"/>
<circle cx="6" cy="114" r="5" stroke="white" stroke-width="2"/>
<circle cx="186" cy="114" r="5" stroke="white" stroke-width="2"/>
<circle cx="122" cy="114" r="5" stroke="white" stroke-width="2"/>
<path d="M11 114H108" stroke="white" stroke-width="2"/>
<line x1="109" y1="108" x2="109" y2="120" stroke="white" stroke-width="2"/>
<circle cx="122" cy="6" r="5" stroke="white" stroke-width="2"/>
<path d="M18 6H118" stroke="white" stroke-width="2"/>
<line x1="19" x2="19" y2="12" stroke="white" stroke-width="2"/>
<path d="M134 6H241" stroke="white" stroke-width="2"/>
<line x1="135" x2="135" y2="12" stroke="white" stroke-width="2"/>
<path d="M127 114L181 114" stroke="white" stroke-width="2"/>
<line x1="190.5" y1="115.134" x2="233.801" y2="140.134" stroke="white" stroke-width="2"/>
<line x1="240" y1="19" x2="252" y2="19" stroke="white" stroke-width="2"/>
<line y1="101" x2="12" y2="101" stroke="white" stroke-width="2"/>
</svg>
