<svg width="29" height="28" viewBox="0 0 29 28" fill="none" xmlns="http://www.w3.org/2000/svg">
<rect width="29" height="28" rx="5" fill="#D9D9D9"/>
<path d="M4.29119 21V7.90909H12.6776V9.89702H6.66264V13.451H12.1023V15.4389H6.66264V21H4.29119ZM26.0433 12.326H23.6527C23.5845 11.9339 23.4588 11.5866 23.2756 11.2841C23.0923 10.9773 22.8643 10.7173 22.5916 10.5043C22.3189 10.2912 22.0078 10.1314 21.6584 10.0249C21.3132 9.91406 20.9403 9.85866 20.5398 9.85866C19.8281 9.85866 19.1974 10.0376 18.6477 10.3956C18.098 10.7493 17.6676 11.2692 17.3565 11.9553C17.0455 12.6371 16.8899 13.4702 16.8899 14.4545C16.8899 15.456 17.0455 16.2997 17.3565 16.9858C17.6719 17.6676 18.1023 18.1832 18.6477 18.5327C19.1974 18.8778 19.826 19.0504 20.5334 19.0504C20.9254 19.0504 21.2919 18.9993 21.6328 18.897C21.978 18.7905 22.2869 18.6349 22.5597 18.4304C22.8366 18.2259 23.0689 17.9744 23.2564 17.6761C23.4482 17.3778 23.5803 17.0369 23.6527 16.6534L26.0433 16.6662C25.9538 17.2884 25.7599 17.8722 25.4616 18.4176C25.1676 18.9631 24.782 19.4446 24.3047 19.8622C23.8274 20.2756 23.2692 20.5994 22.63 20.8338C21.9908 21.0639 21.2813 21.179 20.5014 21.179C19.3509 21.179 18.3239 20.9126 17.4205 20.38C16.517 19.8473 15.8054 19.0781 15.2855 18.0724C14.7656 17.0668 14.5057 15.8608 14.5057 14.4545C14.5057 13.044 14.7678 11.8381 15.2919 10.8366C15.8161 9.83097 16.5298 9.06179 17.4332 8.52912C18.3366 7.99645 19.3594 7.73011 20.5014 7.73011C21.2301 7.73011 21.9077 7.83239 22.5341 8.03693C23.1605 8.24148 23.7188 8.5419 24.2088 8.93821C24.6989 9.33026 25.1016 9.81179 25.4169 10.3828C25.7365 10.9496 25.9453 11.5973 26.0433 12.326Z" fill="black"/>
</svg>
