<svg width="274" height="150" viewBox="0 0 274 150" fill="none" xmlns="http://www.w3.org/2000/svg">
<circle cx="132" cy="6" r="5" transform="rotate(-90 132 6)" stroke="white" stroke-width="2"/>
<circle cx="240" cy="6" r="5" transform="rotate(-90 240 6)" stroke="white" stroke-width="2"/>
<line x1="146" y1="6" x2="236" y2="6" stroke="white" stroke-width="2"/>
<circle cx="132" cy="144" r="5" transform="rotate(-90 132 144)" stroke="white" stroke-width="2"/>
<circle cx="240" cy="144" r="5" transform="rotate(-90 240 144)" stroke="white" stroke-width="2"/>
<line x1="136" y1="144" x2="226" y2="144" stroke="white" stroke-width="2"/>
<circle cx="6" cy="144" r="5" transform="rotate(-90 6 144)" stroke="white" stroke-width="2"/>
<line x1="10" y1="144" x2="120" y2="144" stroke="white" stroke-width="2"/>
<line x1="119" y1="150" x2="119" y2="138" stroke="white" stroke-width="2"/>
<circle cx="6" cy="6.1095" r="5" transform="rotate(-90 6 6.1095)" stroke="white" stroke-width="2"/>
<line x1="20" y1="6" x2="127" y2="6" stroke="white" stroke-width="2"/>
<line x1="145" y1="12" x2="145" stroke="white" stroke-width="2"/>
<line y1="131" x2="12" y2="131" stroke="white" stroke-width="2"/>
<line x1="227" y1="150" x2="227" y2="138" stroke="white" stroke-width="2"/>
<line x1="6" y1="132" x2="6" y2="11" stroke="white" stroke-width="2"/>
<circle cx="240" cy="61" r="5" stroke="white" stroke-width="2"/>
<line x1="240" y1="65" x2="240" y2="139" stroke="white" stroke-width="2"/>
<line x1="19" y1="12" x2="19" stroke="white" stroke-width="2"/>
<line x1="240.616" y1="56.6496" x2="272.755" y2="18.3473" stroke="white" stroke-width="2"/>
</svg>
