<svg width="250" height="153" viewBox="0 0 250 153" fill="none" xmlns="http://www.w3.org/2000/svg">
<circle cx="6" cy="126" r="5" stroke="white" stroke-width="2"/>
<circle cx="244" cy="126" r="5" transform="rotate(90 244 126)" stroke="white" stroke-width="2"/>
<path d="M244 18V121" stroke="white" stroke-width="2"/>
<line x1="250" y1="19" x2="238" y2="19" stroke="white" stroke-width="2"/>
<circle cx="6" cy="6" r="5" transform="rotate(-90 6 6)" stroke="white" stroke-width="2"/>
<path d="M6 114L6 10" stroke="white" stroke-width="2"/>
<line y1="113" x2="12" y2="113" stroke="white" stroke-width="2"/>
<circle cx="125" cy="6" r="5" stroke="white" stroke-width="2"/>
<path d="M18 6H121" stroke="white" stroke-width="2"/>
<line x1="19" x2="19" y2="12" stroke="white" stroke-width="2"/>
<circle cx="125" cy="126" r="5" stroke="white" stroke-width="2"/>
<path d="M11 126L111 126" stroke="white" stroke-width="2"/>
<circle cx="186" cy="126" r="5" stroke="white" stroke-width="2"/>
<path d="M130 126L181 126" stroke="white" stroke-width="2"/>
<line x1="112" y1="120" x2="112" y2="132" stroke="white" stroke-width="2"/>
<line x1="190.5" y1="127.134" x2="233.801" y2="152.134" stroke="white" stroke-width="2"/>
<circle cx="244" cy="6" r="5" stroke="white" stroke-width="2"/>
<path d="M137 6H239" stroke="white" stroke-width="2"/>
<line x1="138" x2="138" y2="12" stroke="white" stroke-width="2"/>
</svg>
