<svg width="252" height="147" viewBox="0 0 252 147" fill="none" stroke="black" xmlns="http://www.w3.org/2000/svg">
<circle cx="246" cy="6" r="5" stroke-width="2"/>
<circle cx="122" cy="6" r="5" stroke-width="2"/>
<path d="M18 6H118" stroke-width="2"/>
<line x1="19" x2="19" y2="12" stroke-width="2"/>
<path d="M134 6H241" stroke-width="2"/>
<line x1="135" x2="135" y2="12" stroke-width="2"/>
<circle cx="178" cy="114" r="5" stroke-width="2"/>
<path d="M11 114L173 114" stroke-width="2"/>
<line x1="182.519" y1="115.341" x2="234.481" y2="145.342" stroke-width="2"/>
<line x1="246" y1="20" x2="246" y2="110" stroke-width="2"/>
<circle cx="246" cy="114" r="5" stroke-width="2"/>
<line x1="240" y1="19" x2="252" y2="19" stroke-width="2"/>
<line x1="6" y1="100" x2="6" y2="10" stroke-width="2"/>
<circle cx="6" cy="6" r="5" transform="rotate(-180 6 6)" stroke-width="2"/>
<circle cx="6" cy="114" r="5" transform="rotate(-180 6 114)" stroke-width="2"/>
<line x1="12" y1="101" y2="101" stroke-width="2"/>
</svg>
